<svg width="512" height="512" viewBox="0 0 512 512" fill="none" xmlns="http://www.w3.org/2000/svg">
<rect width="512" height="512" fill="white"/>
<path d="M85.9398 145.622C87.7591 146.14 89.5783 147.262 90.0981 148.211C90.7046 149.247 90.9645 180.312 90.9645 238.3V326.836H120.939C149.182 326.836 150.914 326.749 150.308 325.282C149.095 322.521 149.095 309.232 150.395 302.933C151.001 299.481 152.56 294.649 153.86 292.146C157.325 285.329 164.169 276.786 169.714 272.472C172.486 270.314 176.384 267.122 178.464 265.309C180.543 263.584 182.882 262.117 183.575 262.117C184.355 262.117 186.52 261.081 188.426 259.787C190.246 258.579 193.884 256.508 196.397 255.213C198.996 253.833 200.642 252.625 200.208 252.107C199.429 251.244 196.743 243.823 194.491 236.229C192.498 229.326 191.892 217.59 193.191 211.981C196.397 198.519 204.107 188.768 216.149 182.814C223.946 178.931 226.112 178.413 236.681 177.982C246.124 177.55 253.748 179.449 258.946 183.677C264.317 187.906 266.136 192.048 266.656 201.108C267.089 208.443 267.002 208.788 263.97 214.915C260.245 222.336 251.668 232.001 244.045 237.351C232.003 245.894 225.419 250.036 224.032 250.036C223.253 250.036 222.646 250.381 222.646 250.812C222.646 251.762 227.325 261.685 228.451 263.238C228.884 263.756 229.924 266.086 230.79 268.33L232.263 272.385L238.76 267.294C242.399 264.447 245.777 262.117 246.384 262.117C246.904 262.117 250.715 260.736 254.787 259.096C265.703 254.696 274.28 253.574 301.049 253.056C313.957 252.797 326.606 252.452 329.205 252.193C336.828 251.589 346.791 249 349.304 247.102L351.643 245.29V199.641C351.729 165.124 351.989 153.475 352.856 151.835C353.375 150.541 355.195 148.643 356.841 147.607L359.786 145.622H408.127C455.255 145.622 456.642 145.709 458.288 147.348C462.099 151.145 462.186 165.901 458.374 169.266C456.902 170.561 453.176 170.733 418.523 170.647H380.318V204.301V237.955L414.365 238.127H449.884C452.57 237.869 454.649 239.508 455.689 242.787C457.161 247.102 456.468 257.802 454.562 260.65L453.09 262.98H416.704H380.318V305.867C380.318 329.511 379.972 349.272 379.625 349.789C376.853 354.018 357.014 354.708 352.856 350.652C351.989 349.876 351.729 339.003 351.729 303.709C351.643 265.223 351.469 257.802 350.516 257.802C349.823 257.802 349.13 258.147 348.957 258.579C348.524 259.7 339.947 263.842 338.041 263.842C337.175 263.842 336.135 264.188 335.616 264.619C335.182 265.051 332.324 266.172 329.205 267.122C323.833 268.761 321.581 269.279 315.777 270.314C313.091 270.746 299.923 271.868 296.544 271.954C294.985 271.954 294.378 272.989 292.732 277.994C288.92 290.42 277.658 310.268 271.247 315.963C270.294 316.912 269.428 318.034 269.428 318.552C269.428 318.983 268.389 320.45 267.089 321.831L264.837 324.161L269.861 329.942C276.965 337.967 280.084 339.866 286.581 339.952C291.519 340.038 292.126 339.779 296.198 336.414C298.623 334.343 301.396 331.582 302.435 330.201C305.554 325.8 307.547 327.267 307.547 333.998C307.547 337.363 307.113 338.054 299.49 345.388C292.213 352.637 291 353.414 285.195 355.226C274.28 358.764 266.829 356.089 256.173 344.957L249.416 337.967L245.604 340.556C239.8 344.439 226.198 351.515 221.78 352.982C219.614 353.672 216.322 354.449 214.416 354.708C212.51 354.967 208.005 355.657 204.453 356.261C195.444 357.642 183.488 356.779 175.691 354.018L169.367 351.86H119.553C71.2122 351.86 69.6528 351.86 66.8805 350.134C65.3212 349.185 63.6751 347.373 63.242 346.165C62.7222 344.784 62.3756 307.593 62.3756 246.239C62.3756 139.496 62.0291 147.262 67.3137 145.622C70.779 144.587 82.1279 144.587 85.9398 145.622Z" fill="#D98846"/>
<path d="M222.213 187.647C217.968 189.114 215.542 191.357 213.29 195.931C210.778 201.022 210.431 202.575 210.431 209.22C210.518 214.225 210.951 217.072 213.463 226.737C213.637 227.427 215.109 231.828 216.582 236.488L219.354 244.945L222.733 242.96C231.57 237.696 240.839 228.549 243.785 221.991C247.597 213.793 248.29 208.443 246.73 200.677C246.124 198.002 240.753 191.357 237.461 189.2C233.562 186.611 227.065 185.921 222.213 187.647Z" fill="white"/>
<path d="M179.157 280.497C181.063 277.045 193.884 265.396 198.389 263.066C200.988 261.685 203.327 260.563 203.587 260.477C203.847 260.477 207.919 268.243 212.684 277.822C217.448 287.486 223.166 298.187 225.505 301.638C227.758 305.09 229.577 308.283 229.577 308.801C229.577 309.577 232.089 313.892 233.042 314.755C234.082 315.618 244.305 331.323 244.305 332.013C244.305 333.049 238.847 336.932 235.295 338.485C233.562 339.175 230.79 340.383 229.057 341.16C217.622 345.992 204.367 345.561 192.585 340.038C187.04 337.363 179.07 329.252 176.644 323.643C173.785 316.998 172.139 308.11 172.832 302.242C173.352 297.41 177.251 284.035 179.157 280.497Z" fill="white"/>
<path d="M261.198 272.299C257.126 272.731 245.084 274.974 241.706 275.923C235.901 277.563 235.901 277.735 240.233 285.157C242.485 288.953 244.305 292.319 244.305 292.578C244.305 293.095 252.361 306.384 257.646 314.496L259.465 317.344L261.025 315.359C264.23 311.476 267.176 306.471 268.822 302.242C273.067 291.283 274.799 286.537 275.232 284.984C275.926 282.223 277.918 272.472 277.745 272.385C277.485 272.126 263.537 272.04 261.198 272.299Z" fill="white"/>
</svg>
